:SAMPLES-PER-SECOND 30
:FRAME-RANGE 1-2775
:FULLY-SPECIFIED
:DEGREES
1561
root  30.9331 38.9906 -72.0758 4.67268 -64.9637 -5.36105
RightUpLeg  -18.1553 -6.86103 -3.20308
RightLeg  11.6461 -4.14792 -0.360318
RightFoot  5.73173 -1.14155 7.85583
RightToes  -5.28216e-011 1.2921e-014 -6.02303e-014
Spine  9.14642 0.266511 5.87107
Spine1  -0.613667 1.34845 -3.60199
HEad  -12.6503 34.5374 -11.1972
LeftShoulder1  1.08015 0.740433 -33.0188
LeftArm  10.0904 10.2923 -26.9333
LeftForeArm  1.80884 -10.558 -14.6817
LeftHand  0.602669 -3.65688 -7.47682
RightShoulder  7.14421 9.57928 47.8302
RightArm  -0.899702 -2.53366 11.4871
RightForeArm  22.8037 -2.32501 15.819
RightHand  0.757775 7.55819 6.39945
LeftUpLeg  9.68907 5.95087 5.66209
LeftLeg  15.4973 -2.22765 0.0164011
LeftFoot  -19.9154 -0.275637 -5.26648
LeftToes  -2.158e-010 -1.26819e-010 -1.05346e-011
1562
root  29.7774 38.9963 -72.1456 5.09088 -63.1963 -5.84061
RightUpLeg  -18.0101 -8.59218 -2.09155
RightLeg  15.2428 -3.89214 -0.764051
RightFoot  2.63638 -0.840409 6.99406
RightToes  -5.28216e-011 1.2921e-014 -6.02303e-014
Spine  8.6349 0.116697 6.56367
Spine1  0.143803 1.04081 -2.26296
HEad  -12.0303 34.2406 -11.0977
LeftShoulder1  1.07704 0.746383 -32.9905
LeftArm  7.24646 11.9571 -26.7784
LeftForeArm  4.21585 -8.2146 -15.6924
LeftHand  0.606992 -3.56992 -7.61182
RightShoulder  7.26819 9.76526 47.979
RightArm  -2.08017 -2.21923 11.3696
RightForeArm  22.606 -2.86786 15.7257
RightHand  0.753079 7.49456 6.39224
LeftUpLeg  8.33004 3.87479 7.13394
LeftLeg  20.4008 -0.274394 0.2188
LeftFoot  -18.5396 -0.567642 -10.7616
LeftToes  -2.158e-010 -1.26819e-010 -1.05346e-011
1563
root  28.7472 39.0362 -72.2146 5.74443 -61.1078 -6.20863
RightUpLeg  -17.4353 -9.60868 -1.4451
RightLeg  17.1396 -4.69095 -0.760562
RightFoot  0.0340183 -0.649249 6.51357
RightToes  -5.28216e-011 1.2921e-014 -6.02303e-014
Spine  8.50758 -0.0338702 7.76
Spine1  -0.0134305 0.960541 -1.31493
HEad  -10.6505 33.2098 -10.2589
LeftShoulder1  1.06645 0.747292 -32.6211
LeftArm  6.94002 13.3558 -27.1846
LeftForeArm  5.0576 -6.78226 -16.3304
LeftHand  0.62043 -3.48532 -7.86605
RightShoulder  7.12839 9.44821 48.2123
RightArm  -3.12548 -2.00246 11.3968
RightForeArm  22.8639 -3.30441 15.5839
RightHand  0.718411 7.45615 6.10195
LeftUpLeg  4.78473 3.48297 8.80485
LeftLeg  27.5559 1.2945 1.07271
LeftFoot  -14.7032 -0.399472 -16.5001
LeftToes  -2.158e-010 -1.26819e-010 -1.05346e-011
1564
root  27.801 39.1012 -72.2374 6.22702 -59.1317 -6.59398
RightUpLeg  -16.2194 -10.4282 -1.03124
RightLeg  17.9349 -5.88343 -0.541491
RightFoot  -2.14229 -0.551491 6.66518
RightToes  -5.28216e-011 1.2921e-014 -6.02303e-014
Spine  8.88701 -0.159119 9.64396
Spine1  -0.652078 1.16605 -1.49116
HEad  -9.51009 31.9542 -9.43321
LeftShoulder1  1.03301 0.803402 -32.1867
LeftArm  8.28487 14.73 -27.8119
LeftForeArm  4.98055 -7.07555 -16.3036
LeftHand  0.668407 -3.66103 -8.3129
RightShoulder  7.00422 9.25682 48.0828
RightArm  -1.74787 -2.17233 11.7612
RightForeArm  21.0024 -2.63402 15.8516
RightHand  0.711618 7.36328 6.08969
LeftUpLeg  0.298067 3.32227 9.96649
LeftLeg  35.3222 3.35541 2.91026
LeftFoot  -7.61446 0.554013 -15.5519
LeftToes  -2.158e-010 -1.26819e-010 -1.05346e-011
1565
root  26.9259 39.1318 -72.2058 6.19138 -57.2501 -6.60678
RightUpLeg  -14.8268 -10.7298 -1.07735
RightLeg  18.6817 -7.30856 -0.180919
RightFoot  -4.22068 -0.467756 7.04585
RightToes  -5.28216e-011 1.2921e-014 -6.02303e-014
Spine  8.79558 -0.0572468 11.0879
Spine1  -0.412585 1.4757 -1.20357
HEad  -9.03364 30.331 -9.08067
LeftShoulder1  1.03145 0.810539 -32.23
LeftArm  9.73267 15.8751 -28.4713
LeftForeArm  5.17006 -8.5604 -15.6446
LeftHand  0.720006 -3.99016 -8.63286
RightShoulder  7.01939 9.41953 47.5727
RightArm  0.556057 -2.34917 12.2113
RightForeArm  18.8756 -1.44579 16.1713
RightHand  0.69327 7.23446 5.99077
LeftUpLeg  -4.21976 2.99315 10.2872
LeftLeg  42.2225 4.95028 5.17806
LeftFoot  0.19616 0.840202 -8.31983
LeftToes  -2.158e-010 -1.26819e-010 -1.05346e-011
1566
root  26.0849 39.1948 -72.1387 5.54146 -55.7463 -6.04788
RightUpLeg  -13.1457 -10.7824 -1.50144
RightLeg  18.9524 -8.70193 0.245451
RightFoot  -5.84548 -0.377553 7.02706
RightToes  -5.28216e-011 1.2921e-014 -6.02303e-014
Spine  9.06059 0.182459 12.142
Spine1  -0.589702 1.94548 -1.27434
HEad  -8.6228 28.5233 -8.57024
LeftShoulder1  0.995353 0.915029 -32.3794
LeftArm  12.9136 17.0854 -29.0828
LeftForeArm  3.35771 -11.054 -14.4701
LeftHand  0.725333 -4.21188 -8.48196
RightShoulder  7.09652 9.62101 47.3523
RightArm  3.48631 -2.32247 12.3341
RightForeArm  17.7534 -0.142617 16.4133
RightHand  0.670134 7.17493 5.80971
LeftUpLeg  -7.78595 3.27027 10.0428
LeftLeg  46.7237 4.56354 5.58033
LeftFoot  1.35843 0.844677 -7.65788
LeftToes  -2.158e-010 -1.26819e-010 -1.05346e-011
1567
root  25.2296 39.3408 -72.039 4.37198 -54.9046 -4.81631
RightUpLeg  -11.0573 -10.4976 -2.14169
RightLeg  18.158 -9.6882 0.543472
RightFoot  -6.99079 -0.336127 7.58422
RightToes  -5.28216e-011 1.2921e-014 -6.02303e-014
Spine  9.334 0.599416 12.8228
Spine1  -1.06445 2.62274 -2.39451
HEad  -8.26248 26.9841 -8.11594
LeftShoulder1  0.938183 1.0632 -32.3689
LeftArm  15.9652 18.4409 -29.6476
LeftForeArm  0.0867151 -13.7319 -12.8826
LeftHand  0.762392 -4.49491 -8.65262
RightShoulder  7.22524 9.85861 47.3526
RightArm  5.59178 -1.96497 12.446
RightForeArm  17.7945 0.594656 16.5184
RightHand  0.649098 7.18146 5.61316
LeftUpLeg  -10.5529 4.71127 8.93675
LeftLeg  48.6159 2.81058 3.83664
LeftFoot  0.131673 0.761454 -7.58191
LeftToes  -2.158e-010 -1.26819e-010 -1.05346e-011
1568
root  24.4138 39.4803 -71.8896 3.49675 -54.131 -3.69153
RightUpLeg  -9.08588 -10.3542 -2.78653
RightLeg  17.0891 -10.4862 0.994947
RightFoot  -7.89003 -0.296657 8.04987
RightToes  -5.28216e-011 1.2921e-014 -6.02303e-014
Spine  9.19304 1.00995 13.3366
Spine1  -1.35045 3.14315 -3.31362
HEad  -7.73462 25.7615 -8.15864
LeftShoulder1  0.888622 1.20093 -32.513
LeftArm  19.0334 19.8502 -30.1282
LeftForeArm  -4.12774 -16.3717 -10.9845
LeftHand  0.772292 -4.60388 -8.66528
RightShoulder  7.40876 10.2964 47.0058
RightArm  6.60426 -1.56466 12.8482
RightForeArm  17.7199 0.974 16.5485
RightHand  0.622015 7.12147 5.39324
LeftUpLeg  -13.0576 6.42767 7.40938
LeftLeg  48.3334 1.42391 2.13488
LeftFoot  -0.687762 0.760142 -8.10048
LeftToes  -2.158e-010 -1.26819e-010 -1.05346e-011
1569
root  23.6226 39.6348 -71.7057 2.53842 -53.1035 -2.34947
RightUpLeg  -6.94647 -10.7471 -3.6878
RightLeg  15.5526 -10.5764 1.81637
RightFoot  -8.50988 -0.261066 8.20479
RightToes  -5.28216e-011 1.2921e-014 -6.02303e-014
Spine  8.93445 1.33651 13.4085
Spine1  -1.75043 3.44638 -4.13989
HEad  -7.09854 24.7319 -8.53443
LeftShoulder1  0.861921 1.27375 -32.5743
LeftArm  19.5489 20.782 -30.6309
LeftForeArm  -5.33111 -17.4691 -10.0233
LeftHand  0.786229 -4.77192 -8.66917
RightShoulder  7.50173 10.5735 46.6487
RightArm  7.78612 -1.18786 13.3032
RightForeArm  16.4927 1.81209 16.5353
RightHand  0.609361 6.95384 5.35697
LeftUpLeg  -15.1765 8.46166 5.44969
LeftLeg  45.9343 0.404287 0.850751
LeftFoot  -1.67173 0.732674 -8.53369
LeftToes  -2.158e-010 -1.26819e-010 -1.05346e-011
1570
root  22.8631 39.7904 -71.4998 1.571 -52.0691 -0.963104
RightUpLeg  -4.79528 -11.1856 -4.57307
RightLeg  13.8532 -10.9406 2.37875
RightFoot  -8.93978 -0.242112 8.63041
RightToes  -5.28216e-011 1.2921e-014 -6.02303e-014
Spine  8.53291 1.69077 13.0568
Spine1  -1.84976 3.67951 -4.72915
HEad  -6.5944 23.7369 -9.1738
LeftShoulder1  0.845216 1.32184 -32.6594
LeftArm  19.9578 21.1002 -31.1666
LeftForeArm  -5.71156 -17.9212 -9.61895
LeftHand  0.765711 -4.74883 -8.45691
RightShoulder  7.50525 10.6638 46.3653
RightArm  8.92616 -0.401237 13.5296
RightForeArm  15.195 2.88077 16.4656
RightHand  0.640621 7.13591 5.5578
LeftUpLeg  -16.7971 11.0797 3.23781
LeftLeg  41.6385 0.164377 0.535847
LeftFoot  -2.6089 0.737372 -9.4382
LeftToes  -2.158e-010 -1.26819e-010 -1.05346e-011
1571
root  22.1515 39.9385 -71.2865 0.829376 -50.9501 0.213425
RightUpLeg  -2.66288 -11.3993 -5.23926
RightLeg  11.9105 -11.6396 2.7871
RightFoot  -9.14535 -0.23163 8.81903
RightToes  -5.28216e-011 1.2921e-014 -6.02303e-014
Spine  8.33583 1.95768 12.468
Spine1  -2.15897 3.80176 -5.20475
HEad  -6.27262 22.8441 -9.78995
LeftShoulder1  0.828499 1.36703 -32.6953
LeftArm  20.3485 21.0692 -31.5449
LeftForeArm  -5.52694 -17.9114 -9.63468
LeftHand  0.772323 -4.79284 -8.49241
RightShoulder  7.55663 10.7931 46.2566
RightArm  12.1963 -0.170838 13.8095
RightForeArm  11.9317 5.55054 16.0002
RightHand  0.63488 7.15065 5.49764
LeftUpLeg  -18.0615 14.1914 0.866546
LeftLeg  35.8296 0.426922 0.687173
LeftFoot  -2.8252 0.683286 -8.93789
LeftToes  -2.158e-010 -1.26819e-010 -1.05346e-011
